<svg width="138" height="138" viewBox="0 0 138 138" fill="none" xmlns="http://www.w3.org/2000/svg">
<path fill-rule="evenodd" clip-rule="evenodd" d="M76.6063 26.9762L49.7955 0L22.662 27.3013L36.62 41.3457L0 51.2184L9.9316 88.5129L28.9986 83.3721L19.1864 120.218L56.2517 130.211L61.3607 111.027L88.1682 138L115.302 110.699L101.344 96.6549L137.967 86.7813L128.035 49.4871L108.969 54.6273L118.781 17.7813L81.7161 7.78832L76.6063 26.9762ZM29.8891 83.1321L66.1834 92.9171L61.5992 110.131L88.1682 83.3974L100.696 96.0026L90.9701 59.48L108.078 54.8676L71.7844 45.0826L76.3697 27.8644L49.7955 54.6026L37.2719 42.0014L46.9969 78.5197L29.8891 83.1321Z" fill="#DA3333"/>
</svg>
