<svg width="20" height="20" viewBox="0 0 20 20" fill="none" xmlns="http://www.w3.org/2000/svg">
<path d="M15.1752 13.9965C15.5006 14.322 15.5006 14.8496 15.1752 15.175C14.8498 15.5005 14.3221 15.5005 13.9967 15.175L10.0026 11.181L6.0087 15.1751C5.68326 15.5005 5.15563 15.5005 4.83019 15.1751C4.50475 14.8496 4.50474 14.322 4.83018 13.9966L8.82411 10.0025L4.83002 6.00851C4.50458 5.68308 4.50458 5.15545 4.83002 4.83001C5.15546 4.50458 5.6831 4.50458 6.00854 4.83001L10.0026 8.82403L13.9965 4.83003C14.322 4.50459 14.8496 4.50458 15.1751 4.83002C15.5005 5.15545 15.5005 5.68309 15.1751 6.00853L11.1811 10.0025L15.1752 13.9965Z" fill="#858D9D"/>
</svg>
