<svg width="20" height="20" viewBox="0 0 20 20" fill="none" xmlns="http://www.w3.org/2000/svg">
<path d="M8.33073 8.1224C8.79097 8.1224 9.16406 8.49549 9.16406 8.95573V13.9557C9.16406 14.416 8.79097 14.7891 8.33073 14.7891C7.87049 14.7891 7.4974 14.416 7.4974 13.9557V8.95573C7.4974 8.49549 7.87049 8.1224 8.33073 8.1224Z" fill="#667085"/>
<path d="M12.4974 8.95573C12.4974 8.49549 12.1243 8.1224 11.6641 8.1224C11.2038 8.1224 10.8307 8.49549 10.8307 8.95573V13.9557C10.8307 14.416 11.2038 14.7891 11.6641 14.7891C12.1243 14.7891 12.4974 14.416 12.4974 13.9557V8.95573Z" fill="#667085"/>
<path fill-rule="evenodd" clip-rule="evenodd" d="M14.9974 4.9974V4.16406C14.9974 2.78335 13.8781 1.66406 12.4974 1.66406H7.4974C6.11668 1.66406 4.9974 2.78335 4.9974 4.16406V4.9974H3.7474C3.28716 4.9974 2.91406 5.37049 2.91406 5.83073C2.91406 6.29097 3.28716 6.66406 3.7474 6.66406H4.16406V15.8307C4.16406 17.2114 5.28335 18.3307 6.66406 18.3307H13.3307C14.7114 18.3307 15.8307 17.2114 15.8307 15.8307V6.66406H16.2474C16.7076 6.66406 17.0807 6.29097 17.0807 5.83073C17.0807 5.37049 16.7076 4.9974 16.2474 4.9974H14.9974ZM12.4974 3.33073H7.4974C7.03716 3.33073 6.66406 3.70383 6.66406 4.16406V4.9974H13.3307V4.16406C13.3307 3.70383 12.9576 3.33073 12.4974 3.33073ZM14.1641 6.66406H5.83073V15.8307C5.83073 16.291 6.20383 16.6641 6.66406 16.6641H13.3307C13.791 16.6641 14.1641 16.291 14.1641 15.8307V6.66406Z" fill="#667085"/>
</svg>
