<svg width="20" height="20" viewBox="0 0 20 20" fill="none" xmlns="http://www.w3.org/2000/svg">
<path fill-rule="evenodd" clip-rule="evenodd" d="M17.3018 6.81796C18.2781 5.84165 18.2781 4.25874 17.3018 3.28243L16.7125 2.69317C15.7362 1.71686 14.1533 1.71686 13.177 2.69317L3.68804 12.1821C3.34331 12.5268 3.10689 12.9649 3.00789 13.4422L2.33818 16.6716C2.21639 17.2588 2.73613 17.7785 3.32336 17.6567L6.55272 16.987C7.03009 16.888 7.4681 16.6516 7.81284 16.3069L17.3018 6.81796ZM16.1233 4.46094L15.534 3.87168C15.2086 3.54624 14.6809 3.54624 14.3555 3.87168L13.4716 4.75559L15.2394 6.52336L16.1233 5.63945C16.4487 5.31401 16.4487 4.78637 16.1233 4.46094ZM14.0608 7.70187L12.2931 5.9341L4.86655 13.3606C4.75164 13.4755 4.67284 13.6215 4.63984 13.7807L4.22789 15.767L6.21428 15.3551C6.37341 15.3221 6.51941 15.2433 6.63433 15.1284L14.0608 7.70187Z" fill="#667085"/>
</svg>
