<svg width="20" height="20" viewBox="0 0 20 20" fill="none" xmlns="http://www.w3.org/2000/svg">
<path fill-rule="evenodd" clip-rule="evenodd" d="M10.0017 4.16406C15.11 4.16406 17.5273 7.58903 18.3782 9.19021C18.6492 9.70006 18.6492 10.2947 18.3782 10.8046C17.5273 12.4058 15.11 15.8307 10.0017 15.8307C4.89334 15.8307 2.47606 12.4058 1.6251 10.8046C1.35413 10.2947 1.35413 9.70006 1.6251 9.19021C2.47607 7.58903 4.89334 4.16406 10.0017 4.16406ZM5.69863 7.06214C4.31507 7.97885 3.50719 9.20025 3.09683 9.97238C3.09225 9.981 3.09036 9.98698 3.08954 9.99027C3.0887 9.99361 3.08854 9.9974 3.08854 9.9974C3.08854 9.9974 3.0887 10.0012 3.08954 10.0045C3.09036 10.0078 3.09225 10.0138 3.09683 10.0224C3.50719 10.7945 4.31507 12.0159 5.69863 12.9327C5.12741 12.0969 4.79334 11.0861 4.79334 9.9974C4.79334 8.90865 5.12741 7.89793 5.69863 7.06214ZM14.3047 12.9326C15.6883 12.0159 16.4962 10.7945 16.9065 10.0224C16.9111 10.0138 16.913 10.0078 16.9138 10.0045C16.9143 10.0024 16.9147 9.9993 16.9147 9.9993L16.9148 9.9974L16.9145 9.99373L16.9138 9.99027C16.913 9.98698 16.9111 9.981 16.9065 9.97238C16.4962 9.20025 15.6883 7.97886 14.3047 7.06215C14.8759 7.89793 15.21 8.90865 15.21 9.9974C15.21 11.0861 14.8759 12.0969 14.3047 12.9326ZM6.46001 9.9974C6.46001 8.04139 8.04567 6.45573 10.0017 6.45573C11.9577 6.45573 13.5433 8.04139 13.5433 9.9974C13.5433 11.9534 11.9577 13.5391 10.0017 13.5391C8.04567 13.5391 6.46001 11.9534 6.46001 9.9974Z" fill="#667085"/>
</svg>
