<svg width="24" height="24" viewBox="0 0 24 24" fill="none" xmlns="http://www.w3.org/2000/svg">
<path fill-rule="evenodd" clip-rule="evenodd" d="M14.781 16.1952C11.6426 18.6377 7.10287 18.4166 4.21815 15.5319C1.09395 12.4077 1.09395 7.34234 4.21815 4.21815C7.34234 1.09395 12.4077 1.09395 15.5319 4.21815C18.4166 7.10287 18.6377 11.6425 16.1952 14.781L20.4816 19.0674C20.8722 19.4579 20.8722 20.0911 20.4816 20.4816C20.0911 20.8721 19.4579 20.8721 19.0674 20.4816L14.781 16.1952ZM5.63236 14.1176C7.9755 16.4608 11.7745 16.4608 14.1176 14.1176C16.4608 11.7745 16.4608 7.9755 14.1176 5.63236C11.7745 3.28921 7.9755 3.28921 5.63236 5.63236C3.28921 7.9755 3.28921 11.7745 5.63236 14.1176Z" fill="#667085"/>
</svg>
